<svg xmlns="http://www.w3.org/2000/svg" viewBox="0 0 512 512" role="img" aria-label="MC">
  <defs>
    <linearGradient id="mBlue" x1="86" y1="176" x2="286" y2="326" gradientUnits="userSpaceOnUse">
      <stop offset="0" stop-color="#16c4ff"/>
      <stop offset=".5" stop-color="#0077dc"/>
      <stop offset="1" stop-color="#0050b8"/>
    </linearGradient>
    <linearGradient id="cGold" x1="300" y1="176" x2="450" y2="318" gradientUnits="userSpaceOnUse">
      <stop offset="0" stop-color="#ffdd26"/>
      <stop offset=".5" stop-color="#ffb21f"/>
      <stop offset="1" stop-color="#f67e00"/>
    </linearGradient>
  </defs>
  <rect width="512" height="512" fill="#fff"/>
  <path d="M410 134C278 87 95 125 46 245c-38 92 44 156 147 164" fill="none" stroke="#0058cd" stroke-width="10" stroke-linecap="round"/>
  <path d="M390 137c102 38 118 147 35 220-60 52-162 67-258 43" fill="none" stroke="#f67e00" stroke-width="10" stroke-linecap="round"/>
  <path d="M88 316l38-122h51l31 88 76-88h52l-37 122h-53l17-61-57 66h-18l-23-66-19 61H88z" fill="url(#mBlue)" stroke="#0048a8" stroke-width="3"/>
  <path d="M447 207c-19-13-45-18-72-11-45 12-77 46-77 81 0 33 28 52 72 52 27 0 54-8 75-23l-25-35c-12 9-28 14-42 14-17 0-27-8-27-20 0-16 15-29 35-34 14-4 27-2 38 5l23-29z" fill="url(#cGold)" stroke="#df6100" stroke-width="3"/>
  <g fill="none" stroke="#0058cd" stroke-linecap="round" stroke-linejoin="round" stroke-width="5">
    <path d="M344 238h70"/>
    <path d="M336 263h96"/>
    <path d="M348 288h62"/>
    <circle cx="417" cy="238" r="8" fill="#fff"/>
    <circle cx="435" cy="263" r="8" fill="#fff"/>
    <circle cx="413" cy="288" r="8" fill="#fff"/>
    <circle cx="373" cy="263" r="8" fill="#fff"/>
  </g>
</svg>
